<svg xmlns="http://www.w3.org/2000/svg" viewBox="0 0 128 128">
  <defs>
    <linearGradient id="wheel" x1="0%" y1="0%" x2="100%" y2="100%">
      <stop offset="0%" stop-color="#ffcfba" />
      <stop offset="100%" stop-color="#ba3d59" />
    </linearGradient>
  </defs>
  <rect width="128" height="128" rx="28" fill="#fff7f1" />
  <circle cx="64" cy="68" r="40" fill="url(#wheel)" />
  <path
    d="M64 28L73 44L64 48L55 44L64 28Z"
    fill="#8f233d"
    stroke="#fff7f1"
    stroke-width="4"
    stroke-linejoin="round"
  />
  <circle cx="64" cy="68" r="14" fill="#fff7f1" />
  <path
    d="M64 82c11-6.3 19-13.1 19-22.2A10.2 10.2 0 0 0 72.7 49c-3.5 0-6.9 1.8-8.7 4.7-1.8-2.9-5.2-4.7-8.7-4.7A10.2 10.2 0 0 0 45 59.8c0 9.1 8 15.9 19 22.2Z"
    fill="#ba3d59"
  />
</svg>
